# xmcd CD database file
#
# Track frame offsets:
#	150
#	15930
#	24505
#	46998
#	66930
#	87360
#	107050
#	129115
#	140620
#	148735
#	168205
#	197025
#
# Disc length: 2925 seconds
#
# Revision: 2
# Processed by: cddbd v1.5.2PL0 Copyright (c) Steve Scherf et al.
# Submitted via: CDex 1.70beta2
#
DISCID=9c0b6b0c
DTITLE=犬神サーカス団 - 蛇神姫
DYEAR=2000
DGENRE=ハードロック
TTITLE0=蛇神姫
TTITLE1=逆流
TTITLE2=苦界浄土
TTITLE3=裏路地哀歌
TTITLE4=鬼畜
TTITLE5=血みどろ菩薩
TTITLE6=寂滅
TTITLE7=でもワザとじゃない
TTITLE8=ガム
TTITLE9=背徳の扉
TTITLE10=父親憎悪
TTITLE11=カナリヤ
EXTD=YEAR: 2000
EXTT0=
EXTT1=
EXTT2=
EXTT3=
EXTT4=
EXTT5=
EXTT6=
EXTT7=
EXTT8=
EXTT9=
EXTT10=
EXTT11=
PLAYORDER=
